<svg id="Layer_1" data-name="Layer 1" xmlns="http://www.w3.org/2000/svg" viewBox="0 0 792 612"><defs><style>.cls-1{fill:#52290c;}.cls-2{fill:none;}.cls-3{fill:#8a653d;}</style></defs><title>logo</title><path class="cls-1" d="M270,188s5.93-7.91,2-26.36c0,0-13.18-31,10.54-36.9,0,0,27-7.91,48.76,3.29,0,0,40.83,16.29,44.13,16.29s45.48,6.11,49.44,16c0,0-4.61,9.88-32.29,6.59,0,0-13.93-2.67-18.61-11.75a36.42,36.42,0,0,0-24.6-14.93l-39.24-6.74s-23.43-6.15-29,10.54c0,0-2.34,9.37,2.34,14.35,0,0,5.86,7.91,3.81,27.23,0,0,.29,6.44,1.76,8.2l-12.3,1.46Z"/><path class="cls-1" d="M247.3,429.8a50.07,50.07,0,0,1-11.06-1.3c.63,2.21,1.35,6-.08,8.85-2.13,4.26-12.8,27.19-8.53,35.72l49.59-1.6s6.93-18.66-6.93-33.59c0,0-3.32-6.64-4-12.55a29.08,29.08,0,0,1-6.88,2.77,44,44,0,0,1-12.12,1.69"/><path class="cls-1" d="M186.41,319.68l.9-2.12c-16.33,6.09-29.59-1.33-41.53-10.43a1.58,1.58,0,0,1,.46-2.76L169,296.83c-1.53-2.1-3.11-4.18-4.65-6.21-4.38-5.78-8.91-11.75-12.47-18.17-8.66-15.61-5-32.27,9.89-44.56,16-13.25,35.59-19.6,54.28-25a3,3,0,0,1,1.62,0l.29.06a1.58,1.58,0,0,1,.77,2.8c-2.64,2.11-5.36,4.19-8,6.21a193.78,193.78,0,0,0-17.87,14.82,69.51,69.51,0,0,0-14,19.45c-3.25,6.87.44,14.52,9.2,19,4.25,2.19,8.62,4.13,13.23,6.17,1.67.74,3.37,1.49,5.09,2.27,3.82-6.43,10-6.42,15.58-6.4h1.73c5.22,0,10.54-.3,15.68-.53,5.37-.25,10.91-.5,16.39-.54,6.63-.06,13.35.54,19.84,1.11l1.8.16a8,8,0,0,1,5.16,2.83c2.4,3.07,4.6,3.38,8.41,1.18,2.23-1.28,4.57-2.38,6.84-3.44a73.18,73.18,0,0,0,7.67-4c5.23-3.25,8.26-7,9-11.24.95-5.38-2-10.54-4.66-13.91-5.25-6.69-11.94-12.54-18.4-18.2-1.71-1.5-3.42-3-5.1-4.5-2.13-1.91-4.41-3.6-6.82-5.38-2.15-1.59-4.38-3.24-6.47-5.05a1.58,1.58,0,0,1,1.38-2.73c13.26,3,28.71,7.31,42.73,16.16a117.4,117.4,0,0,1,12.38,8.75c1.67-14.23-17-29.79-17-29.79-8.18-11-20.62-5.69-24.17-5.33s-14.57-6-14.57-6c-12.09-12.08-19.2-11.37-19.2-11.37-17.42-2.84-28.08,15.28-28.08,15.28-2.84,3.55-10.31,3.2-14.57,2.49s-1.78-1.07-6,.36-22,11-22,11c-13.51,1.78-16.71,8.53-16.71,8.53s-6,2.49-8.53,4.62-28.08,24.88-28.08,24.88c-24.88,24.88-17.42,67.89-17.42,67.89-30.93,50.83-22,103.09-22,103.09-6.4,2.13-9.24,10.31-9.24,10.31,1.07,14.22-6.4,21.33-6.4,21.33C46,460.62,46,479.81,46,479.81l54-2.13c12.09-5,9.6-18.84,7.82-21.68s-4.27-14.57-4.27-16.35,30.21-53,31.64-57.23,3.2-7.82,4.62-12.8,2.84-9.6,4.62-9.24,13.86,8.18,13.86,8.18,11,11.73,19.2,11.38,11.38-4.62,17.06-8.89c1.15-.86,5.22-2.43,11-4.37-2.2-15-10.67-36-18.87-45.32a1.58,1.58,0,0,1-.27-1.67"/><path class="cls-1" d="M320.55,297.55l25.63,8.33c-13.75,9.81-26.44,16.29-40.57,10.05-2.87,5.6-5.31,10.51-7.88,15.35-7.76,14.6-12.43,30-11.63,46.69,0,1,.1,2.33.71,2.84,6.59,5.57,4.91,11.84,1.89,18.39-1,2.19-1.06,4.91-2.36,6.84-1.64,2.42-3.76,5.09-6.31,6.21-4.7,2.07-8.71,4-11.52,8.93-1.56,2.75-6,4.41-9.52,5.41-10.54,3-21,1.6-31.08-2.27-1.09-.42-2.6-1.15-2.89-2.06-2.08-6.57-7.77-8.12-13.21-10.37a10,10,0,0,1-4.51-4.83c-1.69-3.65-2.58-7.66-4.05-11.43-1.89-4.85-3.43-9.18,2-13.28,1.78-1.35,2.31-5.12,2.4-7.82.55-14.87-9.79-42.92-19.79-54.23l2.45-5.75c-16.54,8-29.71,1.89-43.57-8.68l24.86-8.23c-6.2-8.68-13.2-16.8-18.28-26-9-16.19-3.38-31.9,9.51-42.57,15.57-12.89,34.55-19.17,53.71-24.67a3.48,3.48,0,0,1,1.26.15c-8.75,7-18,13.37-26,21.13a70.7,70.7,0,0,0-14.29,19.91c-3.78,8,.82,16.43,9.9,21.11,6.26,3.23,12.81,5.92,19.74,9.09,3.62-7.58,10.13-6.82,16.63-6.88,10.69-.1,21.37-1,32.06-1.07,7.16,0,14.34.64,21.49,1.26a6.44,6.44,0,0,1,4,2.23c3.09,4,6.32,4,10.44,1.58,4.71-2.72,9.95-4.55,14.56-7.42,13.15-8.17,11.61-18.73,4.75-27.47-6.72-8.56-15.51-15.56-23.69-22.9-4.16-3.73-9-6.72-13.32-10.45,14.86,3.39,29.36,7.82,42.24,16,7.18,4.53,14.64,9.66,19.73,16.25,10.24,13.27,9,24.66,1.11,38.45-4.5,7.88-10.92,14.67-16.65,22.18"/><rect class="cls-2" width="792" height="612"/><path class="cls-3" d="M438.18,386.9H361.52V203.75h73.57c35.75,0,56.59,20.06,56.59,51.45,0,20.32-13.38,33.44-22.64,37.81,11.06,5.15,25.21,16.72,25.21,41.16C494.25,368.38,470.85,386.9,438.18,386.9Zm-5.92-151.25h-35v42.19h35c15.18,0,23.67-8.49,23.67-21.09S447.44,235.65,432.26,235.65ZM434.58,310h-37.3v45h37.3c16.21,0,23.92-10.29,23.92-22.64S450.78,310,434.58,310Z"/><path class="cls-3" d="M635,386.9l-10.8-32.41H559.08L548,386.9h-37.3l66.62-183.15h28L672.26,386.9Zm-42.7-129.13-23.15,66.62h45.53Z"/><path class="cls-3" d="M694.9,386.9V203.75h35.75V386.9Z"/><path class="cls-3" d="M402.17,468.54C399.81,469.76,394.6,471,388,471c-17.42,0-28-10.91-28-27.6,0-18.08,12.54-29,29.31-29,6.6,0,11.32,1.38,13.35,2.44l-2.2,8a26.67,26.67,0,0,0-10.75-2.12c-11.15,0-19.22,7-19.22,20.19,0,12.05,7.08,19.79,19.13,19.79a28,28,0,0,0,10.91-2Z"/><path class="cls-3" d="M435.3,454.61l-4.72,15.55H420.24l17.59-54.88h12.78l17.83,54.88H457.69l-5-15.55ZM451,447l-4.32-13.52c-1.06-3.34-2-7.08-2.77-10.26h-.16c-.81,3.18-1.63,7-2.61,10.26L436.93,447Z"/><path class="cls-3" d="M489.11,416a86.79,86.79,0,0,1,15.31-1.14c7.33,0,12.7,1.55,16.2,4.48A15.5,15.5,0,0,1,526,431.49c0,5.21-1.63,9.53-4.72,12.46-4,4-10.26,5.86-17.34,5.86a28.24,28.24,0,0,1-4.89-.33v20.68h-9.93ZM499,441.59a20.19,20.19,0,0,0,4.89.41c7.49,0,12-3.66,12-10.1,0-6.11-4.23-9.36-11.15-9.36A27.69,27.69,0,0,0,499,423Z"/><path class="cls-3" d="M557.66,415.29v54.88h-10V415.29Z"/><path class="cls-3" d="M592.67,423.67H577v-8.39h41.44v8.39h-15.8v46.49h-10Z"/><path class="cls-3" d="M643,454.61l-4.72,15.55H627.92l17.59-54.88h12.78l17.83,54.88H665.37l-5-15.55ZM658.7,447l-4.32-13.52c-1.06-3.34-2-7.08-2.77-10.26h-.16c-.81,3.18-1.63,7-2.61,10.26L644.61,447Z"/><path class="cls-3" d="M696.79,415.29h10v46.49h22.55v8.39H696.79Z"/></svg>